# xmcd
#
# Track frame offsets:
#	150
#	12605
#	30851
#	47190
#	57135
#	72037
#	84234
#	99722
#	113870
#	124900
#	141077
#	152704
#
# Disc length: 2164 seconds
#
# Revision: 1
# Processed by: cddbd v1.4PL0 Copyright (c) Steve Scherf et al.
# Submitted via: audiograbber 1.81.01
#
DISCID=9908720c
DTITLE=Kim and The Cadillacs - I Grandi Successi originali cd2
DYEAR=1900
DGENRE=Pop
TTITLE0=Be bop a lula
TTITLE1=Let me rock you
TTITLE2=Blue moon
TTITLE3=Oh! carol
TTITLE4=Diana
TTITLE5=I got a feeling
TTITLE6=Jenny B. badde
TTITLE7=Kim of rock'n roll
TTITLE8=Summertime blues
TTITLE9=Let it me
TTITLE10=Come on (Dance thè pwist)
TTITLE11=Rebel rouser
EXTD=
EXTT0=
EXTT1=
EXTT2=
EXTT3=
EXTT4=
EXTT5=
EXTT6=
EXTT7=
EXTT8=
EXTT9=
EXTT10=
EXTT11=
PLAYORDER=
